<mxfile host="app.diagrams.net" modified="2021-08-21T03:58:36.898Z" agent="5.0 (Macintosh; Intel Mac OS X 10_15_6) AppleWebKit/537.36 (KHTML, like Gecko) Chrome/92.0.4515.159 Safari/537.36" etag="yqoZQr32fE6uh3DdblFc" version="14.9.8" type="github">
  <diagram id="C5RBs43oDa-KdzZeNtuy" name="Page-1">
    <mxGraphModel dx="1113" dy="656" grid="1" gridSize="10" guides="1" tooltips="1" connect="1" arrows="1" fold="1" page="1" pageScale="1" pageWidth="827" pageHeight="1169" math="0" shadow="0">
      <root>
        <mxCell id="WIyWlLk6GJQsqaUBKTNV-0" />
        <mxCell id="WIyWlLk6GJQsqaUBKTNV-1" parent="WIyWlLk6GJQsqaUBKTNV-0" />
        <mxCell id="hgr6QNY177MapSBymG-A-6" value="" style="edgeStyle=orthogonalEdgeStyle;rounded=0;orthogonalLoop=1;jettySize=auto;html=1;" edge="1" parent="WIyWlLk6GJQsqaUBKTNV-1" source="WIyWlLk6GJQsqaUBKTNV-3" target="hgr6QNY177MapSBymG-A-5">
          <mxGeometry relative="1" as="geometry" />
        </mxCell>
        <mxCell id="hgr6QNY177MapSBymG-A-8" value="" style="edgeStyle=orthogonalEdgeStyle;rounded=0;orthogonalLoop=1;jettySize=auto;html=1;exitX=0.5;exitY=1;exitDx=0;exitDy=0;" edge="1" parent="WIyWlLk6GJQsqaUBKTNV-1" source="WIyWlLk6GJQsqaUBKTNV-3" target="hgr6QNY177MapSBymG-A-7">
          <mxGeometry relative="1" as="geometry" />
        </mxCell>
        <mxCell id="hgr6QNY177MapSBymG-A-10" value="" style="edgeStyle=orthogonalEdgeStyle;rounded=0;orthogonalLoop=1;jettySize=auto;html=1;exitX=0.5;exitY=1;exitDx=0;exitDy=0;" edge="1" parent="WIyWlLk6GJQsqaUBKTNV-1" source="WIyWlLk6GJQsqaUBKTNV-3" target="hgr6QNY177MapSBymG-A-9">
          <mxGeometry relative="1" as="geometry" />
        </mxCell>
        <mxCell id="WIyWlLk6GJQsqaUBKTNV-3" value="登录" style="rounded=1;whiteSpace=wrap;html=1;fontSize=12;glass=0;strokeWidth=1;shadow=0;" parent="WIyWlLk6GJQsqaUBKTNV-1" vertex="1">
          <mxGeometry x="294" y="20" width="120" height="40" as="geometry" />
        </mxCell>
        <mxCell id="hgr6QNY177MapSBymG-A-38" value="" style="edgeStyle=orthogonalEdgeStyle;rounded=0;orthogonalLoop=1;jettySize=auto;html=1;" edge="1" parent="WIyWlLk6GJQsqaUBKTNV-1" source="hgr6QNY177MapSBymG-A-5" target="hgr6QNY177MapSBymG-A-37">
          <mxGeometry relative="1" as="geometry" />
        </mxCell>
        <mxCell id="hgr6QNY177MapSBymG-A-5" value="验证码登录" style="rounded=1;whiteSpace=wrap;html=1;fontSize=12;glass=0;strokeWidth=1;shadow=0;" vertex="1" parent="WIyWlLk6GJQsqaUBKTNV-1">
          <mxGeometry x="294" y="140" width="120" height="40" as="geometry" />
        </mxCell>
        <mxCell id="hgr6QNY177MapSBymG-A-14" value="" style="edgeStyle=orthogonalEdgeStyle;rounded=0;orthogonalLoop=1;jettySize=auto;html=1;" edge="1" parent="WIyWlLk6GJQsqaUBKTNV-1" source="hgr6QNY177MapSBymG-A-7" target="hgr6QNY177MapSBymG-A-13">
          <mxGeometry relative="1" as="geometry" />
        </mxCell>
        <mxCell id="hgr6QNY177MapSBymG-A-34" value="" style="edgeStyle=orthogonalEdgeStyle;rounded=0;orthogonalLoop=1;jettySize=auto;html=1;" edge="1" parent="WIyWlLk6GJQsqaUBKTNV-1" source="hgr6QNY177MapSBymG-A-7" target="hgr6QNY177MapSBymG-A-13">
          <mxGeometry relative="1" as="geometry" />
        </mxCell>
        <mxCell id="hgr6QNY177MapSBymG-A-7" value="&lt;span&gt;一键登录&lt;/span&gt;" style="rounded=1;whiteSpace=wrap;html=1;fontSize=12;glass=0;strokeWidth=1;shadow=0;" vertex="1" parent="WIyWlLk6GJQsqaUBKTNV-1">
          <mxGeometry x="531" y="140" width="120" height="40" as="geometry" />
        </mxCell>
        <mxCell id="hgr6QNY177MapSBymG-A-53" value="" style="edgeStyle=orthogonalEdgeStyle;rounded=0;orthogonalLoop=1;jettySize=auto;html=1;" edge="1" parent="WIyWlLk6GJQsqaUBKTNV-1" source="hgr6QNY177MapSBymG-A-9" target="hgr6QNY177MapSBymG-A-52">
          <mxGeometry relative="1" as="geometry" />
        </mxCell>
        <mxCell id="hgr6QNY177MapSBymG-A-9" value="密码登录" style="rounded=1;whiteSpace=wrap;html=1;fontSize=12;glass=0;strokeWidth=1;shadow=0;" vertex="1" parent="WIyWlLk6GJQsqaUBKTNV-1">
          <mxGeometry x="90" y="140" width="120" height="40" as="geometry" />
        </mxCell>
        <mxCell id="hgr6QNY177MapSBymG-A-18" value="成功" style="edgeStyle=orthogonalEdgeStyle;rounded=0;orthogonalLoop=1;jettySize=auto;html=1;" edge="1" parent="WIyWlLk6GJQsqaUBKTNV-1" source="hgr6QNY177MapSBymG-A-13" target="hgr6QNY177MapSBymG-A-17">
          <mxGeometry relative="1" as="geometry" />
        </mxCell>
        <mxCell id="hgr6QNY177MapSBymG-A-13" value="&lt;span&gt;检测手机号时候否可以登录&lt;/span&gt;" style="rhombus;whiteSpace=wrap;html=1;rounded=1;shadow=0;strokeWidth=1;glass=0;" vertex="1" parent="WIyWlLk6GJQsqaUBKTNV-1">
          <mxGeometry x="529" y="220" width="124" height="110" as="geometry" />
        </mxCell>
        <mxCell id="hgr6QNY177MapSBymG-A-15" value="" style="edgeStyle=orthogonalEdgeStyle;rounded=0;orthogonalLoop=1;jettySize=auto;html=1;entryX=1;entryY=0.5;entryDx=0;entryDy=0;" edge="1" parent="WIyWlLk6GJQsqaUBKTNV-1" source="hgr6QNY177MapSBymG-A-13" target="hgr6QNY177MapSBymG-A-5">
          <mxGeometry relative="1" as="geometry">
            <mxPoint x="410" y="70" as="sourcePoint" />
            <mxPoint x="410" y="150" as="targetPoint" />
          </mxGeometry>
        </mxCell>
        <mxCell id="hgr6QNY177MapSBymG-A-16" value="失败" style="edgeLabel;html=1;align=center;verticalAlign=middle;resizable=0;points=[];" vertex="1" connectable="0" parent="hgr6QNY177MapSBymG-A-15">
          <mxGeometry x="0.0625" y="1" relative="1" as="geometry">
            <mxPoint as="offset" />
          </mxGeometry>
        </mxCell>
        <mxCell id="hgr6QNY177MapSBymG-A-22" value="" style="edgeStyle=orthogonalEdgeStyle;rounded=0;orthogonalLoop=1;jettySize=auto;html=1;exitX=0.5;exitY=1;exitDx=0;exitDy=0;entryX=0.5;entryY=0;entryDx=0;entryDy=0;" edge="1" parent="WIyWlLk6GJQsqaUBKTNV-1" source="hgr6QNY177MapSBymG-A-17" target="hgr6QNY177MapSBymG-A-21">
          <mxGeometry relative="1" as="geometry">
            <Array as="points">
              <mxPoint x="592" y="560" />
              <mxPoint x="478" y="560" />
            </Array>
          </mxGeometry>
        </mxCell>
        <mxCell id="hgr6QNY177MapSBymG-A-23" value="model" style="edgeLabel;html=1;align=center;verticalAlign=middle;resizable=0;points=[];" vertex="1" connectable="0" parent="hgr6QNY177MapSBymG-A-22">
          <mxGeometry x="0.002" y="1" relative="1" as="geometry">
            <mxPoint x="-37" as="offset" />
          </mxGeometry>
        </mxCell>
        <mxCell id="hgr6QNY177MapSBymG-A-17" value="一键登录&lt;br&gt;dukang-user/one_click_login" style="whiteSpace=wrap;html=1;rounded=1;shadow=0;strokeWidth=1;glass=0;" vertex="1" parent="WIyWlLk6GJQsqaUBKTNV-1">
          <mxGeometry x="508.5" y="390" width="167.5" height="50" as="geometry" />
        </mxCell>
        <mxCell id="hgr6QNY177MapSBymG-A-29" value="" style="edgeStyle=orthogonalEdgeStyle;rounded=0;orthogonalLoop=1;jettySize=auto;html=1;" edge="1" parent="WIyWlLk6GJQsqaUBKTNV-1" source="hgr6QNY177MapSBymG-A-21" target="hgr6QNY177MapSBymG-A-28">
          <mxGeometry relative="1" as="geometry" />
        </mxCell>
        <mxCell id="hgr6QNY177MapSBymG-A-30" value="未设置" style="edgeLabel;html=1;align=center;verticalAlign=middle;resizable=0;points=[];" vertex="1" connectable="0" parent="hgr6QNY177MapSBymG-A-29">
          <mxGeometry x="-0.3073" y="-2" relative="1" as="geometry">
            <mxPoint as="offset" />
          </mxGeometry>
        </mxCell>
        <mxCell id="hgr6QNY177MapSBymG-A-50" value="" style="edgeStyle=orthogonalEdgeStyle;rounded=0;orthogonalLoop=1;jettySize=auto;html=1;entryX=0.5;entryY=0;entryDx=0;entryDy=0;" edge="1" parent="WIyWlLk6GJQsqaUBKTNV-1" source="hgr6QNY177MapSBymG-A-21" target="hgr6QNY177MapSBymG-A-31">
          <mxGeometry relative="1" as="geometry">
            <mxPoint x="341.625" y="677.5" as="targetPoint" />
          </mxGeometry>
        </mxCell>
        <mxCell id="hgr6QNY177MapSBymG-A-51" value="已设置" style="edgeLabel;html=1;align=center;verticalAlign=middle;resizable=0;points=[];" vertex="1" connectable="0" parent="hgr6QNY177MapSBymG-A-50">
          <mxGeometry x="-0.4789" relative="1" as="geometry">
            <mxPoint as="offset" />
          </mxGeometry>
        </mxCell>
        <mxCell id="hgr6QNY177MapSBymG-A-21" value="&lt;span&gt;获取用户信息判断是否设置密码&lt;/span&gt;" style="rhombus;whiteSpace=wrap;html=1;rounded=1;shadow=0;strokeWidth=1;glass=0;" vertex="1" parent="WIyWlLk6GJQsqaUBKTNV-1">
          <mxGeometry x="419.75" y="600" width="116.25" height="115" as="geometry" />
        </mxCell>
        <mxCell id="hgr6QNY177MapSBymG-A-28" value="设置密码" style="whiteSpace=wrap;html=1;rounded=1;shadow=0;strokeWidth=1;glass=0;" vertex="1" parent="WIyWlLk6GJQsqaUBKTNV-1">
          <mxGeometry x="417.875" y="760" width="120" height="60" as="geometry" />
        </mxCell>
        <mxCell id="hgr6QNY177MapSBymG-A-61" value="" style="edgeStyle=orthogonalEdgeStyle;rounded=0;orthogonalLoop=1;jettySize=auto;html=1;" edge="1" parent="WIyWlLk6GJQsqaUBKTNV-1" source="hgr6QNY177MapSBymG-A-31" target="hgr6QNY177MapSBymG-A-60">
          <mxGeometry relative="1" as="geometry" />
        </mxCell>
        <mxCell id="hgr6QNY177MapSBymG-A-31" value="跳转公司列表" style="whiteSpace=wrap;html=1;rounded=1;shadow=0;strokeWidth=1;glass=0;" vertex="1" parent="WIyWlLk6GJQsqaUBKTNV-1">
          <mxGeometry x="238.125" y="760" width="120" height="60" as="geometry" />
        </mxCell>
        <mxCell id="hgr6QNY177MapSBymG-A-35" value="" style="edgeStyle=orthogonalEdgeStyle;rounded=0;orthogonalLoop=1;jettySize=auto;html=1;exitX=0;exitY=0.5;exitDx=0;exitDy=0;entryX=1;entryY=0.5;entryDx=0;entryDy=0;" edge="1" parent="WIyWlLk6GJQsqaUBKTNV-1" source="hgr6QNY177MapSBymG-A-28" target="hgr6QNY177MapSBymG-A-31">
          <mxGeometry relative="1" as="geometry">
            <mxPoint x="328.12" y="483" as="sourcePoint" />
            <mxPoint x="378.12" y="693" as="targetPoint" />
            <Array as="points" />
          </mxGeometry>
        </mxCell>
        <mxCell id="hgr6QNY177MapSBymG-A-36" value="成功" style="edgeLabel;html=1;align=center;verticalAlign=middle;resizable=0;points=[];" vertex="1" connectable="0" parent="hgr6QNY177MapSBymG-A-35">
          <mxGeometry x="-0.1007" y="-2" relative="1" as="geometry">
            <mxPoint as="offset" />
          </mxGeometry>
        </mxCell>
        <mxCell id="hgr6QNY177MapSBymG-A-40" value="" style="edgeStyle=orthogonalEdgeStyle;rounded=0;orthogonalLoop=1;jettySize=auto;html=1;" edge="1" parent="WIyWlLk6GJQsqaUBKTNV-1" source="hgr6QNY177MapSBymG-A-37" target="hgr6QNY177MapSBymG-A-39">
          <mxGeometry relative="1" as="geometry" />
        </mxCell>
        <mxCell id="hgr6QNY177MapSBymG-A-37" value="获取flowId&lt;br&gt;muscat/get_flow_id" style="rounded=1;whiteSpace=wrap;html=1;fontSize=12;glass=0;strokeWidth=1;shadow=0;" vertex="1" parent="WIyWlLk6GJQsqaUBKTNV-1">
          <mxGeometry x="294" y="230" width="120" height="40" as="geometry" />
        </mxCell>
        <mxCell id="hgr6QNY177MapSBymG-A-42" value="" style="edgeStyle=orthogonalEdgeStyle;rounded=0;orthogonalLoop=1;jettySize=auto;html=1;" edge="1" parent="WIyWlLk6GJQsqaUBKTNV-1" source="hgr6QNY177MapSBymG-A-39" target="hgr6QNY177MapSBymG-A-41">
          <mxGeometry relative="1" as="geometry" />
        </mxCell>
        <mxCell id="hgr6QNY177MapSBymG-A-39" value="发送验证码&lt;br&gt;dukang-sms/sms/vcode" style="rounded=1;whiteSpace=wrap;html=1;fontSize=12;glass=0;strokeWidth=1;shadow=0;" vertex="1" parent="WIyWlLk6GJQsqaUBKTNV-1">
          <mxGeometry x="284" y="300" width="140" height="40" as="geometry" />
        </mxCell>
        <mxCell id="hgr6QNY177MapSBymG-A-44" value="" style="edgeStyle=orthogonalEdgeStyle;rounded=0;orthogonalLoop=1;jettySize=auto;html=1;" edge="1" parent="WIyWlLk6GJQsqaUBKTNV-1" source="hgr6QNY177MapSBymG-A-41" target="hgr6QNY177MapSBymG-A-43">
          <mxGeometry relative="1" as="geometry" />
        </mxCell>
        <mxCell id="hgr6QNY177MapSBymG-A-41" value="验证验证码&lt;br&gt;dukang-sms/sms/vcode_check" style="rounded=1;whiteSpace=wrap;html=1;fontSize=12;glass=0;strokeWidth=1;shadow=0;" vertex="1" parent="WIyWlLk6GJQsqaUBKTNV-1">
          <mxGeometry x="262" y="380" width="184" height="40" as="geometry" />
        </mxCell>
        <mxCell id="hgr6QNY177MapSBymG-A-43" value="获取token&lt;br&gt;dukang-user/users/vcode_check_scuccess/token" style="rounded=1;whiteSpace=wrap;html=1;fontSize=12;glass=0;strokeWidth=1;shadow=0;" vertex="1" parent="WIyWlLk6GJQsqaUBKTNV-1">
          <mxGeometry x="221" y="460" width="266" height="60" as="geometry" />
        </mxCell>
        <mxCell id="hgr6QNY177MapSBymG-A-47" value="" style="edgeStyle=orthogonalEdgeStyle;rounded=0;orthogonalLoop=1;jettySize=auto;html=1;exitX=0.5;exitY=1;exitDx=0;exitDy=0;entryX=0.5;entryY=0;entryDx=0;entryDy=0;" edge="1" parent="WIyWlLk6GJQsqaUBKTNV-1" source="hgr6QNY177MapSBymG-A-43" target="hgr6QNY177MapSBymG-A-21">
          <mxGeometry relative="1" as="geometry">
            <mxPoint x="576.3" y="450" as="sourcePoint" />
            <mxPoint x="510" y="640" as="targetPoint" />
            <Array as="points">
              <mxPoint x="354" y="560" />
              <mxPoint x="478" y="560" />
            </Array>
          </mxGeometry>
        </mxCell>
        <mxCell id="hgr6QNY177MapSBymG-A-48" value="model" style="edgeLabel;html=1;align=center;verticalAlign=middle;resizable=0;points=[];" vertex="1" connectable="0" parent="hgr6QNY177MapSBymG-A-47">
          <mxGeometry x="0.002" y="1" relative="1" as="geometry">
            <mxPoint as="offset" />
          </mxGeometry>
        </mxCell>
        <mxCell id="hgr6QNY177MapSBymG-A-54" value="" style="edgeStyle=orthogonalEdgeStyle;rounded=0;orthogonalLoop=1;jettySize=auto;html=1;entryX=0;entryY=0.5;entryDx=0;entryDy=0;" edge="1" parent="WIyWlLk6GJQsqaUBKTNV-1" source="hgr6QNY177MapSBymG-A-52" target="hgr6QNY177MapSBymG-A-5">
          <mxGeometry relative="1" as="geometry" />
        </mxCell>
        <mxCell id="hgr6QNY177MapSBymG-A-55" value="未注册" style="edgeLabel;html=1;align=center;verticalAlign=middle;resizable=0;points=[];" vertex="1" connectable="0" parent="hgr6QNY177MapSBymG-A-54">
          <mxGeometry x="0.1902" y="3" relative="1" as="geometry">
            <mxPoint x="1" as="offset" />
          </mxGeometry>
        </mxCell>
        <mxCell id="hgr6QNY177MapSBymG-A-57" value="" style="edgeStyle=orthogonalEdgeStyle;rounded=0;orthogonalLoop=1;jettySize=auto;html=1;entryX=0;entryY=0.5;entryDx=0;entryDy=0;" edge="1" parent="WIyWlLk6GJQsqaUBKTNV-1" source="hgr6QNY177MapSBymG-A-52" target="hgr6QNY177MapSBymG-A-31">
          <mxGeometry relative="1" as="geometry">
            <mxPoint x="160" y="790" as="targetPoint" />
            <Array as="points">
              <mxPoint x="150" y="790" />
            </Array>
          </mxGeometry>
        </mxCell>
        <mxCell id="hgr6QNY177MapSBymG-A-58" value="成功，即已有账号" style="edgeLabel;html=1;align=center;verticalAlign=middle;resizable=0;points=[];" vertex="1" connectable="0" parent="hgr6QNY177MapSBymG-A-57">
          <mxGeometry x="-0.0095" y="1" relative="1" as="geometry">
            <mxPoint as="offset" />
          </mxGeometry>
        </mxCell>
        <mxCell id="hgr6QNY177MapSBymG-A-52" value="登录&lt;br&gt;dukang-user/logun_new" style="rhombus;whiteSpace=wrap;html=1;rounded=1;shadow=0;strokeWidth=1;glass=0;" vertex="1" parent="WIyWlLk6GJQsqaUBKTNV-1">
          <mxGeometry x="75" y="220" width="145" height="110" as="geometry" />
        </mxCell>
        <mxCell id="hgr6QNY177MapSBymG-A-60" value="公司列表还有很多逻辑&lt;br&gt;比如 没有公司（创建公司）、一个公司（审核中）、一个公司（未激活）、一个公司（已激活）、多个公司" style="whiteSpace=wrap;html=1;rounded=1;shadow=0;strokeWidth=1;glass=0;" vertex="1" parent="WIyWlLk6GJQsqaUBKTNV-1">
          <mxGeometry x="112.17999999999999" y="920" width="371.88" height="120" as="geometry" />
        </mxCell>
      </root>
    </mxGraphModel>
  </diagram>
</mxfile>
